<?xml version="1.0" standalone="no"?>
<!DOCTYPE svg PUBLIC "-//W3C//DTD SVG 1.1//EN" "http://www.w3.org/Graphics/SVG/1.1/DTD/svg11.dtd" >
<svg>
<metadata>
Created by FontForge 20090914 at Mon Nov 22 10:03:59 2021
 By www-data
Typeface &#194;&#169; (your company). 2020. All Rights Reserved
</metadata>
<defs>
<font id="AkiraExpanded-SuperBold" horiz-adv-x="1613" >
  <font-face 
    font-family="Akira Expanded"
    font-weight="800"
    font-stretch="normal"
    units-per-em="2048"
    panose-1="2 0 8 0 0 0 0 0 0 0"
    ascent="1638"
    descent="-410"
    x-height="1343"
    cap-height="1345"
    bbox="19.9713 -393 3036 1634"
    underline-thickness="150"
    underline-position="-142"
    unicode-range="U+0020-U+2265"
  />
<missing-glyph horiz-adv-x="864" 
d="M844 0h-824v1434h824v-1434zM70 1384v-1334h724v1334h-724zM220 1060l0.000976562 82.9971c21.333 19.333 42.333 35 63 47c41.333 23.333 85.333 35 132 35c71.333 0 127.333 -17.333 168 -52s61 -77.667 61 -129c0 -30 -7.66699 -62 -23 -96
c-15.333 -33.333 -44.333 -76.333 -87 -129l-99 -132c-24 -35.333 -36 -69.666 -36 -102.999c0 -24 8.66699 -70 26 -138h-82c-25.333 70.667 -38 122 -38 154c0 48 27 119.667 81 215c54.667 94.667 82 167.667 82 219c0 38.667 -9 67.834 -27 87.501
s-41.667 29.5 -71 29.5c-18.667 0 -35.334 -4 -50.001 -12c-16 -9.33301 -49.333 -35.666 -100 -78.999zM300.001 330.997l57.999 58.999c9.33301 8 19 12 29 12c8.66699 0 18.667 -4.66699 30 -14l56 -60c5.33301 -7.33301 8 -13.666 8 -18.999
c0 -7.33301 -3.33301 -14.333 -10 -21l-56 -62c-11.333 -11.333 -20.666 -17 -27.999 -17c-11.333 0 -21 4.33301 -29 13l-62 71c-4.66699 5.33301 -7 11 -7 17c0 6.66699 3.66699 13.667 11 21z" />
    <glyph glyph-name=".notdef" horiz-adv-x="864" 
d="M844 0h-824v1434h824v-1434zM70 1384v-1334h724v1334h-724zM220 1060l0.000976562 82.9971c21.333 19.333 42.333 35 63 47c41.333 23.333 85.333 35 132 35c71.333 0 127.333 -17.333 168 -52s61 -77.667 61 -129c0 -30 -7.66699 -62 -23 -96
c-15.333 -33.333 -44.333 -76.333 -87 -129l-99 -132c-24 -35.333 -36 -69.666 -36 -102.999c0 -24 8.66699 -70 26 -138h-82c-25.333 70.667 -38 122 -38 154c0 48 27 119.667 81 215c54.667 94.667 82 167.667 82 219c0 38.667 -9 67.834 -27 87.501
s-41.667 29.5 -71 29.5c-18.667 0 -35.334 -4 -50.001 -12c-16 -9.33301 -49.333 -35.666 -100 -78.999zM300.001 330.997l57.999 58.999c9.33301 8 19 12 29 12c8.66699 0 18.667 -4.66699 30 -14l56 -60c5.33301 -7.33301 8 -13.666 8 -18.999
c0 -7.33301 -3.33301 -14.333 -10 -21l-56 -62c-11.333 -11.333 -20.666 -17 -27.999 -17c-11.333 0 -21 4.33301 -29 13l-62 71c-4.66699 5.33301 -7 11 -7 17c0 6.66699 3.66699 13.667 11 21z" />
    <glyph glyph-name="space" unicode=" " horiz-adv-x="1000" 
 />
    <glyph glyph-name="space" unicode="&#xa0;" horiz-adv-x="1000" 
 />
    <glyph glyph-name="exclam" unicode="!" horiz-adv-x="564" 
d="M20 1475h524v-885h-524v885zM20 393h524v-393h-524v393z" />
    <glyph glyph-name="quotedbl" unicode="&#x22;" horiz-adv-x="1050" 
d="M932 721h-263l-98 754h459zM381 721h-263l-98 754h459z" />
    <glyph glyph-name="numbersign" unicode="#" horiz-adv-x="2244" 
d="M1331 852h-361l-56 -229h360zM762 0h-492l56 229h-306v394h402l56 229h-327v394h423l57 229h491l-56 -229h361l56 229h492l-57 -229h306v-394h-402l-56 -229h327v-394h-423l-56 -229h-492l56 229h-360z" />
    <glyph glyph-name="dollar" unicode="$" horiz-adv-x="1810" 
d="M555 914c0 -19.333 12.333 -32.1689 37 -38.502s80 -11.166 166 -14.499v171c-74.667 -7.33301 -127.167 -22.166 -157.5 -44.499s-45.5 -46.833 -45.5 -73.5zM1275 461.997c0 16 -5.33203 27.8301 -15.999 35.4971s-31.334 13.834 -62.001 18.501
s-78.667 8.33398 -144 11.001v-187c44.667 4.66699 82.5 11.834 113.5 21.501s53.833 20.667 68.5 33s25 23.833 31 34.5s9 21.667 9 33zM20.001 467.994l514.999 -0.00195312c0 -66 74.333 -108 223 -126v196c-256.667 13.333 -440.334 49.333 -551.001 108
c-111.333 59.333 -167 156.333 -167 291c0 127.333 61.167 227 183.5 299s300.5 113.667 534.5 125v209h295v-210c474 -23.333 711 -168.666 711 -435.999h-515c0 45.333 -65.333 78.333 -196 99v-173c82.667 -4 154.334 -9 215.001 -15s120.5 -14.667 179.5 -26
s108.167 -26 147.5 -44s74.333 -40.167 105 -66.5s53.334 -58.333 68.001 -96s22 -80.834 22 -129.501c0 -153.333 -61.667 -266.666 -185 -339.999s-307.333 -114.666 -552 -123.999v-209h-295v208c-99.333 4 -186 11.333 -260 22s-142.167 27 -204.5 49
s-113 50.167 -152 84.5s-69 76.833 -90 127.5s-31.5 109.667 -31.5 177z" />
    <glyph glyph-name="percent" unicode="%" horiz-adv-x="2813" 
d="M898 0l525 1475h491l-524 -1475h-492zM2082 473v-61c0 -52 16.667 -88 50 -108c28 -18 69.667 -27 125 -27c60.667 0 105.167 10.833 133.5 32.5s42.5 55.834 42.5 102.501v61c0 52 -16.667 88 -50 108c-28 18 -70 27 -126 27c-60.667 0 -105 -10.833 -133 -32.5
s-42 -55.834 -42 -102.501zM2049 20c-218 49.333 -327.001 173 -327.001 371v103c0 146 58.333 251 175 315c48.667 26 99.334 44.667 152.001 56c72 13.333 141.333 20 208 20c67.333 0 137 -6.66699 209 -20c46.667 -10 88.834 -24.167 126.5 -42.5
c37.667 -18.333 72 -42 103 -71s55 -65.333 72 -109s25.5 -93.167 25.5 -148.5v-103c0 -146 -58.333 -251 -175 -315c-48.667 -26 -99.334 -44.667 -152 -56c-72 -13.333 -141.667 -20 -209 -20c-66.667 0 -136 6.66699 -208 20zM379.999 1063l0.000976562 -61
c0 -52 16.667 -88 50 -108c28 -18 69.667 -27 125 -27c60.667 0 105.167 10.833 133.5 32.5s42.5 55.834 42.5 102.501v61c0 52 -17 88 -51 108c-26.667 18 -68.334 27 -125.001 27c-60.667 0 -105 -10.833 -133 -32.5s-42 -55.834 -42 -102.501zM195 1399
c46.667 25.333 97.332 44 151.999 56c72 13.333 141.333 20 208 20s136.334 -6.66699 209.001 -20c219.333 -50 328 -173.667 326 -371v-103c0 -146.667 -58.333 -251.667 -175 -315c-47.333 -26 -97.666 -44.667 -150.999 -56c-72.667 -13.333 -142.334 -20 -209.001 -20
s-136 6.66699 -208 20c-218 48 -327 171.667 -327 371v103c0 146.667 58.333 251.667 175 315z" />
    <glyph glyph-name="ampersand" unicode="&#x26;" horiz-adv-x="1810" 
d="M1151 468l-0.000976562 125h-344c-77.333 0 -139.5 -5.16699 -186.5 -15.5s-79.667 -24.5 -98 -42.5s-27.5 -40.333 -27.5 -67c0 -41.333 23.833 -73.166 71.5 -95.499s127.834 -33.5 240.501 -33.5c114 0 199.833 11.667 257.5 35s86.5 54.666 86.5 93.999zM1593 593
l-0.00195312 -193.002c0 -38 -5.83301 -75 -17.5 -111s-35 -74.167 -70 -114.5s-80.333 -75.166 -136 -104.499s-131.834 -53.833 -228.501 -73.5s-208 -29.5 -334 -29.5c-91.333 0 -175.166 5 -251.499 15s-141.166 23.5 -194.499 40.5s-100.5 37.5 -141.5 61.5
s-73.667 48.667 -98 74s-44.333 52.833 -60 82.5s-26.5 57.167 -32.5 82.5s-9 51 -9 77c0 30 1.16699 56.667 3.5 80s8.5 50.333 18.5 81s23.333 57.334 40 80.001s40.834 44.5 72.501 65.5s69.5 37.5 113.5 49.5c-112 56 -168 144.667 -168 266
c0 123.333 54.333 213.333 163 270s290 85 544 85c119.333 0 223 -6.66699 311 -20c138 -20 238.333 -57.5 301 -112.5s94 -129.167 94 -222.5c0 -10.667 -0.666992 -25.334 -2 -44.001h-425c-4 11.333 -7.83301 20.333 -11.5 27s-11.667 15.167 -24 25.5
s-27.5 18.333 -45.5 24s-44 10.667 -78 15s-74 6.5 -120 6.5c-166.667 0 -250 -40 -250 -120c0 -15.333 3.5 -28.833 10.5 -40.5s19.167 -22.667 36.5 -33s43 -18.166 77 -23.499s76 -8 126 -8h311h672v-258h-197z" />
    <glyph glyph-name="quotesingle" unicode="'" horiz-adv-x="499" 
d="M381 721h-263l-98 754h459z" />
    <glyph glyph-name="parenleft" unicode="(" horiz-adv-x="925" 
d="M905 -202h-426c-125.333 -1.33301 -233.5 43.5 -324.5 134.5s-135.833 199.167 -134.5 324.5v852c-1.33301 125.333 43.5 233.5 134.5 324.5s199.167 135.833 324.5 134.5h426v-393h-262c-45.333 0 -84 -16 -116 -48s-48 -70.667 -48 -116v-656c0 -45.333 16 -84 48 -116
s70.667 -48 116 -48h262v-393z" />
    <glyph glyph-name="parenright" unicode=")" horiz-adv-x="925" 
d="M446 -202h-426v393h262c45.333 0 84 16 116 48s48 70.667 48 116v656c0 45.333 -16 84 -48 116s-70.667 48 -116 48h-262v393h426c125.333 1.33301 233.5 -43.5 324.5 -134.5s135.833 -199.167 134.5 -324.5v-852c1.33301 -125.333 -43.5 -233.5 -134.5 -324.5
s-199.167 -135.833 -324.5 -134.5z" />
    <glyph glyph-name="asterisk" unicode="*" horiz-adv-x="1087" 
d="M401 480l-292 211l251 233l-340 40l111 343l299 -168l-67 336h361l-68 -336l299 168l112 -342l-341 -41l253 -232l-292 -212l-144 311z" />
    <glyph glyph-name="plus" unicode="+" 
d="M577 1331h459v-459h557v-393h-557v-459h-459v459h-557v393h557v459z" />
    <glyph glyph-name="comma" unicode="," horiz-adv-x="564" 
d="M315 -393h-197l131 393h-229v394h524v-394z" />
    <glyph glyph-name="hyphen" unicode="-" horiz-adv-x="1515" 
d="M20 869h1475v-393h-1475v393z" />
    <glyph glyph-name="hyphen" unicode="&#xad;" horiz-adv-x="1515" 
d="M20 869h1475v-393h-1475v393z" />
    <glyph glyph-name="period" unicode="." horiz-adv-x="564" 
d="M20 393h524v-393h-524v393z" />
    <glyph glyph-name="slash" unicode="/" horiz-adv-x="1155" 
d="M544 -52h-524l590 1475h525z" />
    <glyph glyph-name="zero" unicode="0" horiz-adv-x="1745" 
d="M1200 624l-0.000976562 98c0 98.667 -34 169.667 -102 213c-55.333 32.667 -130.666 49 -225.999 49c-218.667 0 -328 -87.333 -328 -262v-98c0 -102 34.333 -173 103 -213c56.667 -33.333 131.667 -50 225 -50c35.333 0 67.833 2 97.5 6s59.167 12 88.5 24
s54 27.333 74 46s36.333 44 49 76s19 69 19 111zM1205 1345c58.667 -12.667 112.666 -29.1689 161.999 -49.502s96.5 -47 141.5 -80s83.167 -70.667 114.5 -113s56.166 -93.166 74.499 -152.499s27.5 -124.333 27.5 -195v-164c0 -230.667 -93 -398 -279 -502
c-73.333 -39.333 -153.666 -68.666 -240.999 -87.999c-100 -22 -211 -33 -333 -33c-122.667 0 -233.334 11 -332.001 33c-74 16 -140.833 38.5 -200.5 67.5s-114.167 66.5 -163.5 112.5s-87.666 103.833 -114.999 173.5s-41 148.5 -41 236.5v164
c0 231.333 93 398.333 279 501c70.667 40 151 69.667 241 89c98.667 22 209.334 33 332.001 33c122 0 233 -11 333 -33z" />
    <glyph glyph-name="one" unicode="1" horiz-adv-x="1482" 
d="M495 1344h525v-951h442v-393h-1442v393h475v525l-409 -131v426z" />
    <glyph glyph-name="two" unicode="2" horiz-adv-x="1745" 
d="M1725 929c0 -30.667 -4.16309 -59.4951 -12.4961 -86.4951s-18.833 -51.333 -31.5 -73s-29.834 -42.5 -51.501 -62.5s-42.834 -37.167 -63.501 -51.5s-46.5 -28.666 -77.5 -42.999s-58.667 -26.166 -83 -35.499s-54.5 -19.333 -90.5 -30s-65.5 -19 -88.5 -25l-88.5 -22
c-79.333 -18.667 -142.833 -36.834 -190.5 -54.501s-80.834 -37.834 -99.501 -60.501h855v-384h-1683v227c0 33.333 5.66699 65.166 17 95.499s25.666 57.666 42.999 81.999s41 48 71 71s59.167 43.167 87.5 60.5s63.666 34.666 105.999 51.999s80 31.833 113 43.5
s73.833 24.167 122.5 37.5l120 32l119 29c155.333 38 255.666 67.333 300.999 88c52.667 23.333 79 48.666 79 75.999c0 30 -23 54 -69 72s-114 27 -204 27c-52.667 -0.666992 -99.167 -3.33398 -139.5 -8.00098s-78 -12.5 -113 -23.5s-61.667 -27 -80 -48
s-27.166 -46.5 -26.499 -76.5h-526c0 64 7.16699 121.5 21.5 172.5s34.333 95.167 60 132.5s58.5 69.833 98.5 97.5s83 50.167 129 67.5s99.5 31.333 160.5 42s122.667 18 185 22s131.833 6 208.5 6c132.667 0 248.5 -8.16699 347.5 -24.5s184.333 -42 256 -77
s125.834 -81.5 162.501 -139.5s55 -127.333 55 -208z" />
    <glyph glyph-name="three" unicode="3" horiz-adv-x="1745" 
d="M1725 966c0 -128.667 -70.999 -226.339 -212.999 -293.006c142 -66.667 213 -164.667 213 -294c0 -137.333 -71.333 -240.166 -214 -308.499s-348.334 -102.5 -617.001 -102.5c-78.667 0 -149.667 2 -213 6s-125.833 11.333 -187.5 22s-115.834 24.834 -162.501 42.501
s-90.167 40.334 -130.5 68.001s-73.333 60 -99 97s-45.667 80.833 -60 131.5s-21.5 107.667 -21.5 171h525c-0.666992 -26 4.83301 -48 16.5 -66s27.167 -31.667 46.5 -41s43.833 -16.333 73.5 -21s60.5 -7.66699 92.5 -9s68 -2.33301 108 -3h33
c98.667 0 170.667 8.33301 216 25s68 42.667 68 78c0 30.667 -10 51.334 -30 62.001c-27.333 14 -100.666 21.667 -219.999 23c-36 0.666992 -108 1 -216 1v235c210.667 0 338.667 3.33301 384 10c44 7.33301 69.667 21.666 77 42.999c3.33301 8.66699 5 19.667 5 33
c0 70.667 -94.667 105.334 -284 104.001c-120.667 -2 -199.334 -6 -236.001 -12c-76.667 -14 -120.334 -46 -131.001 -96c-2 -10 -3 -21 -3 -33h-525c0 63.333 7.16699 120.333 21.5 171s34.333 94.5 60 131.5s58.667 69.333 99 97s83.833 50.334 130.5 68.001
s100.834 31.834 162.501 42.501s124.167 18 187.5 22s134.333 6 213 6c268.667 0 474.334 -34 617.001 -102s214 -171 214 -309z" />
    <glyph glyph-name="four" unicode="4" horiz-adv-x="1745" 
d="M544 623h459v336zM1003 1344h525v-721h197v-394h-197v-229h-525v229h-983v394z" />
    <glyph glyph-name="five" unicode="5" horiz-adv-x="1745" 
d="M598 858l135.004 -0.00488281c66 0 124.5 -0.5 175.5 -1.5s106 -3.5 165 -7.5s110.833 -9.16699 155.5 -15.5s90.667 -15.166 138 -26.499s87.833 -24.833 121.5 -40.5s66.167 -34.667 97.5 -57s56.666 -47.666 75.999 -75.999s34.666 -61.166 45.999 -98.499
s17 -78.333 17 -123c0 -140 -72.667 -249 -218 -327c-144.667 -78 -349 -117 -613 -117c-78.667 0 -149.667 2 -213 6s-125.833 11.333 -187.5 22s-115.834 24.834 -162.501 42.501s-90.167 40.334 -130.5 68.001s-73.333 60 -99 97s-45.667 80.833 -60 131.5
s-21.5 107.667 -21.5 171h525c-0.666992 -26 4.83301 -48 16.5 -66s27.167 -31.667 46.5 -41s43.833 -16.333 73.5 -21s60.5 -7.66699 92.5 -9s68 -2.33301 108 -3h33c98.667 0 170.667 8.33301 216 25s68 42.667 68 78c0 24 -5.16699 44.167 -15.5 60.5
s-30.833 32 -61.5 47s-78.334 26.167 -143.001 33.5s-146.667 11 -246 11h-713v3l164 721h1442v-361h-1000z" />
    <glyph glyph-name="six" unicode="6" horiz-adv-x="1745" 
d="M1255 458c0 19.333 -9.00293 36.333 -27.0029 51c-47.333 33.333 -118 54 -212 62c-94.667 8.66699 -189.334 9.66699 -284.001 3c-96 -6 -166.667 -14.333 -212 -25l-31 -8v-130c0.666992 -6.66699 2.83398 -13.334 6.50098 -20.001s13.667 -15.5 30 -26.5
s37.833 -20.333 64.5 -28s67 -14.334 121 -20.001s117 -8.5 189 -8.5c22.667 0 45.834 0.666992 69.501 2s53.834 5 90.501 11s68.334 13.833 95.001 23.5s50 24.334 70 44.001s30 42.834 30 69.501zM1610 690c76.667 -64.667 114.999 -145.009 114.999 -241.009
c0 -33.333 -3.16699 -65.333 -9.5 -96s-18.166 -62.334 -35.499 -95.001s-39.333 -62.834 -66 -90.501s-61.667 -54 -105 -79s-93.166 -46.167 -149.499 -63.5s-124 -31.166 -203 -41.499s-166.167 -15.5 -261.5 -15.5s-179.666 2.83301 -252.999 8.5
s-144.333 15.834 -213 30.501s-127 34.834 -175 60.501s-90.167 57.667 -126.5 96s-63.333 85.333 -81 141s-26.5 119.834 -26.5 192.501v318c0 72.667 8.83301 136.834 26.5 192.501s44.667 102.834 81 141.501s78.5 70.834 126.5 96.501s106.333 45.834 175 60.501
s139.667 24.834 213 30.501s157.666 8.5 252.999 8.5h727v-335h-887c-24 0 -47.667 -1.66699 -71 -5s-49.5 -9.33301 -78.5 -18s-52.5 -23.5 -70.5 -44.5s-27 -46.833 -27 -77.5v-34l48 9c33.333 6.66699 92.666 12.334 177.999 17.001c90 6 190 6.66699 300 2
c114 -5.33301 223.667 -20.666 329 -45.999c107.333 -24.667 196.333 -65.667 267 -123z" />
    <glyph glyph-name="seven" unicode="7" 
d="M1036 951h-1016v393h1573v-393l-753 -951h-656z" />
    <glyph glyph-name="eight" unicode="8" horiz-adv-x="1745" 
d="M872 340c208 0 312.001 42.9971 312.001 128.997c0 26.667 -9.16699 48.834 -27.5 66.501s-51.166 31.834 -98.499 42.501s-109.333 16 -186 16c-112.667 0 -192.834 -10.667 -240.501 -32s-71.5 -52.333 -71.5 -93c0 -41.333 24.167 -73.166 72.5 -95.499
s128.166 -33.5 239.499 -33.5zM872.001 1045c-66 0 -117.664 -3.66699 -154.997 -11s-62.333 -17 -75 -29s-19 -28 -19 -48c0 -20.667 6.16699 -37 18.5 -49s37.166 -21.667 74.499 -29s89.333 -11 156 -11c67.333 0 119.666 3.66699 156.999 11s62.166 17 74.499 29
s18.5 28.333 18.5 49c0 20 -6.5 36 -19.5 48s-38.167 21.667 -75.5 29s-89 11 -155 11zM1411 756.997c110 -30 189.833 -74.166 239.5 -132.499s74.5 -132.833 74.5 -223.5c0 -58 -8.5 -109 -25.5 -153s-45.333 -84.167 -85 -120.5s-92 -65.833 -157 -88.5
s-146.167 -40.167 -243.5 -52.5s-211.333 -18.5 -342 -18.5c-163.333 0 -300.5 9 -411.5 27s-198.667 46 -263 84s-110 82.833 -137 134.5s-40.5 114.167 -40.5 187.5c0 91.333 24.667 166 74 224s129.333 102 240 132c-112.667 56 -169 144.667 -169 266
c0 123.333 54.5 213.166 163.5 269.499s290.167 84.5 543.5 84.5c170.667 0 308.167 -13 412.5 -39s179.5 -64.5 225.5 -115.5s69 -117.5 69 -199.5c0 -119.333 -56 -208 -168 -266z" />
    <glyph glyph-name="nine" unicode="9" horiz-adv-x="1745" 
d="M489 888c0 -18.667 9.33301 -35.6689 28 -51.002c46 -33.333 116.333 -54.333 211 -63c94.667 -8 189.667 -9 285 -3c98 7.33301 168.667 16 212 26l31 7l-1 131c0 6.66699 -1.83301 13.334 -5.5 20.001s-13.5 15.334 -29.5 26.001s-37.667 20 -65 28
s-68 14.833 -122 20.5s-117 8.5 -189 8.5c-22 0 -45 -0.666992 -69 -2s-54.167 -5 -90.5 -11s-68 -14 -95 -24s-50.5 -24.833 -70.5 -44.5s-30 -42.5 -30 -68.5zM134 655.998c-76 65.333 -113.995 145.333 -113.995 240c0 33.333 3.16699 65.333 9.5 96s18 62.5 35 95.5
s38.833 63.333 65.5 91s61.667 54 105 79s93.166 46.167 149.499 63.5s124.166 31.166 203.499 41.499s166.666 15.5 261.999 15.5c81.333 0 154.333 -2 219 -6s128 -11.167 190 -21.5s116.167 -24.166 162.5 -41.499s89.166 -39.5 128.499 -66.5s71.5 -59 96.5 -96
s44.333 -80.333 58 -130s20.5 -105.834 20.5 -168.501v-318c0 -62 -6.83301 -118 -20.5 -168s-33 -93.333 -58 -130s-57.167 -68.5 -96.5 -95.5s-82.166 -49.167 -128.499 -66.5s-100.5 -31.166 -162.5 -41.499s-125.333 -17.5 -190 -21.5s-137.667 -6 -219 -6h-727v335h887
c24 0 47.5 1.66699 70.5 5s49 9.33301 78 18s52.5 23.5 70.5 44.5s27 46.833 27 77.5v33l-47 -8c-30.667 -6 -90.334 -12 -179.001 -18c-90 -6 -190 -6.66699 -300 -2c-109.333 4.66699 -219.333 20 -330 46c-106.667 26 -195.334 67.333 -266.001 124z" />
    <glyph glyph-name="colon" unicode=":" horiz-adv-x="564" 
d="M20 1115h524v-394h-524v394zM20 393h524v-393h-524v393z" />
    <glyph glyph-name="semicolon" unicode=";" horiz-adv-x="564" 
d="M20 1115h524v-393h-524v393zM315 -393h-197l131 393h-229v394h524v-394z" />
    <glyph glyph-name="less" unicode="&#x3c;" 
d="M20 869l1573 393v-393l-786 -197l786 -196v-394l-1573 394v393z" />
    <glyph glyph-name="equal" unicode="=" 
d="M20 1179h1573v-393h-1573v393zM20 559h1573v-393h-1573v393z" />
    <glyph glyph-name="greater" unicode="&#x3e;" 
d="M20 869v393l1573 -393v-393l-1573 -394v394l787 196z" />
    <glyph glyph-name="question" unicode="?" horiz-adv-x="1646" 
d="M446 1033l0.00292969 -33.001h-425c-0.666992 7.33301 -1 18.333 -1 33c0 131.333 29.667 230.666 89 297.999c36 42 91.333 76.667 166 104c74 26.667 174.667 40 302 40h492c70.667 0 134.167 -4.66699 190.5 -14s103.666 -21.833 141.999 -37.5
s71.5 -35.334 99.5 -59.001s49.833 -47.5 65.5 -71.5s28.167 -51.833 37.5 -83.5s15.333 -60.667 18 -87s4 -56.166 4 -89.499c0 -28.667 -3 -55 -9 -79s-13 -44.167 -21 -60.5s-20.5 -31.666 -37.5 -45.999s-31.5 -25.5 -43.5 -33.5s-30.333 -16.333 -55 -25
s-43.334 -14.667 -56.001 -18l-61 -16c-24 -5.33301 -43.667 -10.166 -59 -14.499s-33.666 -10.333 -54.999 -18s-38.666 -15.667 -51.999 -24s-27.5 -19 -42.5 -32s-26.833 -27.5 -35.5 -43.5s-15.834 -35.167 -21.501 -57.5s-8.5 -46.833 -8.5 -73.5h-525
c0 48.667 5.66699 93.334 17 134.001s25.666 75.167 42.999 103.5s40 54.166 68 77.499s54.5 41.833 79.5 55.5s55.5 26.5 91.5 38.5s66.167 20.667 90.5 26s53.833 11.333 88.5 18c30 6 53.833 11.167 71.5 15.5s35.667 10 54 17s31.666 15 39.999 24s12.5 19.5 12.5 31.5
c0 42 -15 69.667 -45 83c-30 14 -86 21 -168 21h-328c-81.333 0 -137.333 -6.66699 -168 -20c-30 -12.667 -45 -40.667 -45 -84zM1069 -0.000976562h-525v328h525v-328z" />
    <glyph glyph-name="at" unicode="@" horiz-adv-x="1908" 
d="M1397 655l10 11.999l-10 12c-33.333 39.333 -72.666 71 -117.999 95c-42.667 22.667 -93.334 34 -152.001 34c-62 0 -108.5 -5.16699 -139.5 -15.5s-51 -24.666 -60 -42.999s-13.5 -45.833 -13.5 -82.5c0 -52.667 12 -88.667 36 -108c24 -22 83 -33 177 -33
c104.667 0 194.667 43 270 129zM1888 1082l0.00195312 -841.005h-393v192l-26 -30c-2.66699 -4 -13 -14.667 -31 -32c-44 -40.667 -94.667 -73.667 -152 -99c-73.333 -32 -150 -48 -230 -48c-203.333 0 -343.666 43.667 -420.999 131c-60.667 69.333 -91 173.333 -91 312
s30.333 242.667 91 312c77.333 87.333 217.666 131 420.999 131c145.333 0 272.666 -49 381.999 -147c18 -18 28.333 -28.667 31 -32l26 -30v127c0 95.333 -61.333 163.333 -184 204c-54 17.333 -114 28.333 -180 33c-70.667 5.33301 -124 8 -160 8
c-38 0 -78.5 -2 -121.5 -6s-91.333 -12 -145 -24s-101.334 -27.167 -143.001 -45.5s-76.834 -43.666 -105.501 -75.999s-43 -69.166 -43 -110.499v-688c0 -41.333 13.167 -78.166 39.5 -110.499s58.833 -57.666 97.5 -75.999s83.167 -33.5 133.5 -45.5s96 -20 137 -24
s80.167 -6 117.5 -6h33v-361h-33c-98.667 0 -201.667 8 -309 24c-106.667 16 -206 43 -298 81c-207.333 86 -311 242.333 -311 469v786c0 226.667 103.667 383 311 469c92.667 38 198 65 316 81c116.667 16 224.667 24 324 24c64 0 122.167 -1.33301 174.5 -4
s111.166 -8.66699 176.499 -18s123.333 -21.666 174 -36.999s101.334 -37 152.001 -65s92.834 -60.833 126.501 -98.5s61 -84.5 82 -140.5s31.5 -119 31.5 -189z" />
    <glyph glyph-name="A" unicode="A" horiz-adv-x="2105" 
d="M1053 954l-185 -397h369zM20 -1l721 1344h623l721 -1344h-590l-106 230h-673l-106 -230h-590z" />
    <glyph glyph-name="B" unicode="B" horiz-adv-x="1843" 
d="M544 319l705 0.00195312c22 0 41.167 9.16699 57.5 27.5s24.5 39.166 24.5 62.499s-8.16699 44.166 -24.5 62.499s-35.5 27.5 -57.5 27.5h-705v-180zM1151 1024l-607 0.000976562v-181h607c22 0 41.167 9.33301 57.5 28s24.5 39.667 24.5 63
s-8.16699 44.166 -24.5 62.499s-35.5 27.5 -57.5 27.5zM1569 694.003c78 -25.333 139.833 -66.666 185.5 -123.999s68.5 -127.333 68.5 -210c1.33301 -112.667 -39 -201 -121 -265s-183.667 -96 -305 -96h-1377v1344h1278c58.667 0 113.834 -7.83301 165.501 -23.5
s97.167 -38.334 136.5 -68.001s70.166 -67.667 92.499 -114s33.166 -97.833 32.499 -154.5c0 -63.333 -13.667 -119.5 -41 -168.5s-65.666 -89.167 -114.999 -120.5z" />
    <glyph glyph-name="C" unicode="C" horiz-adv-x="1873" 
d="M1316 558l537.001 0.00292969c-28.667 -393.333 -333.667 -590 -915 -590c-105.333 0 -201.833 6.33301 -289.5 19s-171.334 34.667 -251.001 66s-146.667 71.333 -201 120s-97.5 111.167 -129.5 187.5s-47.667 164.166 -47 263.499v98
c-0.666992 98.667 15 186.167 47 262.5s75.167 138.833 129.5 187.5s121.333 88.667 201 120s163.167 53.333 250.5 66s184 19.334 290 20.001c581.333 -1.33301 886.333 -198 915 -590h-537c-22.667 61.333 -66.167 103.833 -130.5 127.5s-146.833 35.5 -247.5 35.5
c-47.333 -0.666992 -88.833 -3 -124.5 -7s-71.167 -11.667 -106.5 -23s-64.333 -26.333 -87 -45s-41 -43.834 -55 -75.501s-20.667 -68.834 -20 -111.501v-33c-0.666992 -42.667 6 -79.667 20 -111s32.333 -56.333 55 -75s51.667 -33.834 87 -45.501s71 -19.5 107 -23.5
s77.333 -6.33301 124 -7c100.667 0 183.167 12 247.5 36s107.833 66.667 130.5 128z" />
    <glyph glyph-name="D" unicode="D" horiz-adv-x="1876" 
d="M1331 671c0 70.667 -19 129.333 -57 176s-90 70 -156 70h-574v-492h574c66 0 118 23.5 156 70.5s57 105.5 57 175.5zM20 1343h1196c120 1.33301 229.5 -28.334 328.5 -89.001s175.833 -142.667 230.5 -246s81.667 -215.666 81 -336.999
c0.666992 -120.667 -26.333 -232.667 -81 -336s-131.5 -185.5 -230.5 -246.5s-208.5 -90.833 -328.5 -89.5h-1196v1344z" />
    <glyph glyph-name="E" unicode="E" 
d="M20 -1v1344h1573v-344h-1049v-172h1049v-311h-1049v-172h1049v-345h-1573z" />
    <glyph glyph-name="F" unicode="F" horiz-adv-x="1679" 
d="M20 -1v1344h1639v-426h-1115v-164h984v-393h-984v-361h-524z" />
    <glyph glyph-name="G" unicode="G" horiz-adv-x="1867" 
d="M934 509v230.003h913v-771h-262l-26 209c-73.333 -72.667 -164.166 -125.667 -272.499 -159s-224.5 -50 -348.5 -50c-106 0.666992 -202.833 7.33398 -290.5 20.001s-171.334 34.667 -251.001 66s-146.667 71.333 -201 120s-97.333 111.167 -129 187.5
s-47.167 163.833 -46.5 262.5v98c0 71.333 8 136.833 24 196.5s38.667 111.667 68 156s65.666 83.833 108.999 118.5s90.666 63.5 141.999 86.5s108.5 42 171.5 57s127.333 25.667 193 32s135.834 9.5 210.501 9.5c554.667 0 857.667 -180.333 909 -541h-557
c-32.667 44.667 -80.334 75 -143.001 91c-62 16 -131.667 24 -209 24c-47.333 -0.666992 -88.833 -3 -124.5 -7s-71.334 -11.833 -107.001 -23.5s-64.834 -26.834 -87.501 -45.501s-41 -43.667 -55 -75s-20.667 -68.333 -20 -111v-33
c-0.666992 -42.667 6 -79.834 20 -111.501s32.333 -56.834 55 -75.501s51.834 -33.667 87.501 -45s71.334 -19 107.001 -23s77.167 -6.33301 124.5 -7c116.667 0 206.334 7.16699 269.001 21.5s112.334 45.166 149.001 92.499h-422z" />
    <glyph glyph-name="H" unicode="H" horiz-adv-x="1876" 
d="M1331 460h-787v-459h-524v1344h524v-459h787v459h525v-1344h-525v459z" />
    <glyph glyph-name="I" unicode="I" horiz-adv-x="564" 
d="M20 1345h524v-1344h-524v1344z" />
    <glyph glyph-name="J" unicode="J" horiz-adv-x="1875" 
d="M1331 656l-0.00292969 688h524v-721c0 -436.667 -306 -655 -918 -655c-106 0 -202.833 6.33301 -290.5 19s-171.167 34.667 -250.5 66s-146.166 71.333 -200.499 120s-97.333 111.167 -129 187.5s-47.167 163.833 -46.5 262.5v164h524v-131
c-0.666992 -42.667 6 -79.834 20 -111.501s32.333 -56.834 55 -75.501s51.667 -33.667 87 -45s70.833 -19 106.5 -23s77.167 -6.33301 124.5 -7c47.333 0.666992 88.833 3 124.5 7s71.334 11.667 107.001 23s64.834 26.333 87.501 45s41 43.834 55 75.501
s20.667 68.834 20 111.501z" />
    <glyph glyph-name="K" unicode="K" horiz-adv-x="1974" 
d="M773 460h-229v-459h-524v1344h524v-459h229l493 459h688l-697 -672l697 -672h-688z" />
    <glyph glyph-name="L" unicode="L" 
d="M20 1345h524v-918h1049v-426h-1573v1344z" />
    <glyph glyph-name="M" unicode="M" horiz-adv-x="2400" 
d="M20 1v1344h656l524 -672l525 672h655v-1344h-524v717l-525 -717h-262l-525 717v-717h-524z" />
    <glyph glyph-name="N" unicode="N" horiz-adv-x="1876" 
d="M1331 633v712h525v-1344h-590l-722 821v-821h-524v1344h721z" />
    <glyph glyph-name="O" unicode="O" horiz-adv-x="1875" 
d="M938 1378c611.333 0 916.999 -218.667 916.999 -656v-98c0.666992 -98.667 -14.833 -186.167 -46.5 -262.5s-74.667 -139 -129 -188s-121.166 -89 -200.499 -120s-162.833 -53 -250.5 -66s-184.5 -19.5 -290.5 -19.5c-74.667 0 -144.834 3.16699 -210.501 9.5
s-130 17 -193 32s-120.167 34 -171.5 57s-98.666 51.833 -141.999 86.5s-79.666 74.334 -108.999 119.001s-52 96.667 -68 156s-24 124.666 -24 195.999v98c0 71.333 8 136.833 24 196.5s38.667 111.667 68 156s65.666 83.833 108.999 118.5s90.666 63.5 141.999 86.5
s108.5 42 171.5 57s127.333 25.667 193 32s135.834 9.5 210.501 9.5zM1331 657v33c0.666992 42.667 -6 79.667 -20 111s-32.333 56.333 -55 75s-51.667 33.834 -87 45.501s-71 19.5 -107 23.5s-77.333 6.33301 -124 7c-47.333 -0.666992 -88.833 -3 -124.5 -7
s-71.334 -11.833 -107.001 -23.5s-64.834 -26.834 -87.501 -45.501s-41 -43.667 -55 -75s-20.667 -68.333 -20 -111v-33c-0.666992 -42.667 6 -79.834 20 -111.501s32.333 -56.834 55 -75.501s51.834 -33.834 87.501 -45.501s71.334 -19.5 107.001 -23.5
s77.167 -6.33301 124.5 -7c46.667 0.666992 88 3 124 7s71.667 11.833 107 23.5s64.333 26.834 87 45.501s41 43.834 55 75.501s20.667 68.834 20 111.501z" />
    <glyph glyph-name="P" unicode="P" horiz-adv-x="1843" 
d="M544 721h640c31.333 0 58 11 80 33c22.667 22.667 34 49.667 34 81c0 32 -11.333 59 -34 81c-22 22.667 -48.667 34 -80 34h-640v-229zM20 1343l1295 0.00292969c90.667 0.666992 175.334 -21.833 254.001 -67.5s141 -107.834 187 -186.501s68.333 -163.334 67 -254.001
c1.33301 -90.667 -21 -175.334 -67 -254.001s-108.333 -141 -187 -187s-163.334 -68.333 -254.001 -67h-771v-328h-524v1344z" />
    <glyph glyph-name="Q" unicode="Q" horiz-adv-x="1876" 
d="M1856 721v-97.999c0 -240.667 -91.333 -414.334 -274 -521.001l274 -397h-558l-169 270c-66 -5.33301 -129.667 -8 -191 -8c-106 0.666992 -202.667 7.33398 -290 20.001s-170.833 34.5 -250.5 65.5s-146.667 70.833 -201 119.5s-97.5 111.167 -129.5 187.5
s-47.667 164.166 -47 263.499v98c-0.666992 98.667 15 186.167 47 262.5s75.167 138.833 129.5 187.5s121.333 88.667 201 120s163.167 53.333 250.5 66s184 19.334 290 20.001c106 -0.666992 202.667 -7.33398 290 -20.001s170.833 -34.667 250.5 -66
s146.667 -71.333 201 -120s97.5 -111.167 129.5 -187.5s47.667 -163.833 47 -262.5zM938 393.001c46.667 0.666992 88 3 124 7s71.667 11.833 107 23.5s64.333 26.834 87 45.501s41 43.667 55 75s20.667 68.333 20 111v33c0.666992 42.667 -6 79.834 -20 111.501
s-32.333 56.834 -55 75.501s-51.667 33.667 -87 45s-70.833 19 -106.5 23s-77.167 6.33301 -124.5 7c-47.333 -0.666992 -88.833 -3 -124.5 -7s-71.334 -11.667 -107.001 -23s-64.834 -26.333 -87.501 -45s-41 -43.834 -55 -75.501s-20.667 -68.834 -20 -111.501v-33
c-0.666992 -42.667 6 -79.667 20 -111s32.333 -56.333 55 -75s51.834 -33.834 87.501 -45.501s71.334 -19.5 107.001 -23.5s77.167 -6.33301 124.5 -7z" />
    <glyph glyph-name="R" unicode="R" horiz-adv-x="1843" 
d="M20 1344l1295 0.00195312c90.667 0.666992 175.334 -21.833 254.001 -67.5s141 -107.834 187 -186.501s68.333 -163.334 67 -254.001c0 -101.333 -27 -193 -81 -275c-53.333 -82 -124 -143.333 -212 -184l293 -377h-558l-253 328h-468v-328h-524v1344zM1183 951.002h-639
v-229h639c32 0 59 11 81 33c22.667 22.667 34 49.667 34 81c0 32 -11.167 59.167 -33.5 81.5s-49.5 33.5 -81.5 33.5z" />
    <glyph glyph-name="S" unicode="S" horiz-adv-x="1864" 
d="M569 902c0 -30.667 49.332 -51.332 147.999 -61.999c42 -4.66699 117.333 -9.66699 226 -15c218 -11.333 378.333 -26.666 481 -45.999c248 -47.333 386 -139.666 414 -276.999c4 -18.667 6 -38.334 6 -59.001c0 -74.667 -16.833 -140.167 -50.5 -196.5
s-78.167 -101.833 -133.5 -136.5s-123.333 -63 -204 -85s-163 -37 -247 -45s-176.333 -12 -277 -12c-73.333 0 -139 1.5 -197 4.5s-118.167 8.83301 -180.5 17.5s-117 20 -164 34s-93 33 -138 57s-82.667 52.5 -113 85.5s-56 72.667 -77 119s-35.167 98.833 -42.5 157.5h549
c28 -48.667 72.833 -82.667 134.5 -102s137.834 -29 228.501 -29c44.667 0 86.834 2 126.501 6s78 10.667 115 20s66.5 23 88.5 41s33 39.333 33 64c0 9.33301 -4 17.833 -12 25.5s-21.167 14 -39.5 19s-36.666 9.16699 -54.999 12.5s-44.333 6.5 -78 9.5
s-62.667 5.16699 -87 6.5s-58.5 3 -102.5 5c-218 11.333 -378.333 26.666 -481 45.999c-248 47.333 -386 139.666 -414 276.999c-4 18.667 -6 38 -6 58c0 317.333 304 476 912 476c74 -0.666992 139.667 -2.5 197 -5.5s117.5 -8.66699 180.5 -17s117.833 -19.5 164.5 -33.5
s92.5 -33 137.5 -57s82.667 -52.333 113 -85s56.166 -72.5 77.499 -119.5s35.333 -99.833 42 -158.5h-549c-28 49.333 -72.5 83.5 -133.5 102.5s-137.5 28.5 -229.5 28.5c-45.333 0 -87.5 -1.83301 -126.5 -5.5s-77.333 -10.167 -115 -19.5s-67.334 -23 -89.001 -41
s-32.5 -39.667 -32.5 -65z" />
    <glyph glyph-name="T" unicode="T" horiz-adv-x="1810" 
d="M1167 -1h-524v918h-623v426h1770v-426h-623v-918z" />
    <glyph glyph-name="U" unicode="U" horiz-adv-x="1876" 
d="M1331 656v689h525v-722c0.666992 -98.667 -15 -186.167 -47 -262.5s-75.167 -138.833 -129.5 -187.5s-121.333 -88.667 -201 -120s-163.334 -53.333 -251.001 -66s-184.167 -19 -289.5 -19s-201.833 6.33301 -289.5 19s-171.334 34.667 -251.001 66
s-146.667 71.333 -201 120s-97.5 111.167 -129.5 187.5s-47.667 163.833 -47 262.5v722h524v-689c-0.666992 -42.667 6 -79.834 20 -111.501s32.333 -56.834 55 -75.501s51.834 -33.667 87.501 -45s71.334 -19 107.001 -23s77.167 -6.33301 124.5 -7
c47.333 0.666992 88.833 3 124.5 7s71.167 11.667 106.5 23s64.333 26.333 87 45s41 43.834 55 75.501s20.667 68.834 20 111.501z" />
    <glyph glyph-name="V" unicode="V" horiz-adv-x="2040" 
d="M610 1343l410 -933l410 933h590l-689 -1344h-623l-688 1344h590z" />
    <glyph glyph-name="W" unicode="W" horiz-adv-x="3056" 
d="M2134 492l312 851h590l-590 -1344h-623l-295 672l-295 -672h-623l-590 1344h590l311 -851l312 851h590z" />
    <glyph glyph-name="X" unicode="X" horiz-adv-x="2105" 
d="M1053 951l377 392h655l-705 -672l705 -672h-655l-377 393l-377 -393h-656l705 672l-705 672h656z" />
    <glyph glyph-name="Y" unicode="Y" horiz-adv-x="2072" 
d="M643 1343l393 -482l394 482h622l-754 -885v-459h-524v459l-754 885h623z" />
    <glyph glyph-name="Z" unicode="Z" horiz-adv-x="1777" 
d="M905 917h-885v426h1737v-426l-917 -491h917v-427h-1737v427z" />
    <glyph glyph-name="bracketleft" unicode="[" horiz-adv-x="925" 
d="M479 193h426v-393h-885v1770h885v-393h-426v-984z" />
    <glyph glyph-name="backslash" unicode="\" horiz-adv-x="1155" 
d="M544 1423l591 -1475h-525l-590 1475h524z" />
    <glyph glyph-name="bracketright" unicode="]" horiz-adv-x="925" 
d="M20 -200v393h426v984h-426v393h885v-1770h-885z" />
    <glyph glyph-name="underscore" unicode="_" horiz-adv-x="2105" 
d="M20 1h2065v-361h-2065v361z" />
    <glyph glyph-name="a" unicode="a" horiz-adv-x="2105" 
d="M1053 954l-185 -397h369zM20 -1l721 1344h623l721 -1344h-590l-106 230h-673l-106 -230h-590z" />
    <glyph glyph-name="b" unicode="b" horiz-adv-x="1843" 
d="M544 319l705 0.00195312c22 0 41.167 9.16699 57.5 27.5s24.5 39.166 24.5 62.499s-8.16699 44.166 -24.5 62.499s-35.5 27.5 -57.5 27.5h-705v-180zM1151 1024l-607 0.000976562v-181h607c22 0 41.167 9.33301 57.5 28s24.5 39.667 24.5 63
s-8.16699 44.166 -24.5 62.499s-35.5 27.5 -57.5 27.5zM1569 694.003c78 -25.333 139.833 -66.666 185.5 -123.999s68.5 -127.333 68.5 -210c1.33301 -112.667 -39 -201 -121 -265s-183.667 -96 -305 -96h-1377v1344h1278c58.667 0 113.834 -7.83301 165.501 -23.5
s97.167 -38.334 136.5 -68.001s70.166 -67.667 92.499 -114s33.166 -97.833 32.499 -154.5c0 -63.333 -13.667 -119.5 -41 -168.5s-65.666 -89.167 -114.999 -120.5z" />
    <glyph glyph-name="c" unicode="c" horiz-adv-x="1873" 
d="M1316 558l537.001 0.00292969c-28.667 -393.333 -333.667 -590 -915 -590c-105.333 0 -201.833 6.33301 -289.5 19s-171.334 34.667 -251.001 66s-146.667 71.333 -201 120s-97.5 111.167 -129.5 187.5s-47.667 164.166 -47 263.499v98
c-0.666992 98.667 15 186.167 47 262.5s75.167 138.833 129.5 187.5s121.333 88.667 201 120s163.167 53.333 250.5 66s184 19.334 290 20.001c581.333 -1.33301 886.333 -198 915 -590h-537c-22.667 61.333 -66.167 103.833 -130.5 127.5s-146.833 35.5 -247.5 35.5
c-47.333 -0.666992 -88.833 -3 -124.5 -7s-71.167 -11.667 -106.5 -23s-64.333 -26.333 -87 -45s-41 -43.834 -55 -75.501s-20.667 -68.834 -20 -111.501v-33c-0.666992 -42.667 6 -79.667 20 -111s32.333 -56.333 55 -75s51.667 -33.834 87 -45.501s71 -19.5 107 -23.5
s77.333 -6.33301 124 -7c100.667 0 183.167 12 247.5 36s107.833 66.667 130.5 128z" />
    <glyph glyph-name="d" unicode="d" horiz-adv-x="1876" 
d="M1331 671c0 70.667 -19 129.333 -57 176s-90 70 -156 70h-574v-492h574c66 0 118 23.5 156 70.5s57 105.5 57 175.5zM20 1343h1196c120 1.33301 229.5 -28.334 328.5 -89.001s175.833 -142.667 230.5 -246s81.667 -215.666 81 -336.999
c0.666992 -120.667 -26.333 -232.667 -81 -336s-131.5 -185.5 -230.5 -246.5s-208.5 -90.833 -328.5 -89.5h-1196v1344z" />
    <glyph glyph-name="e" unicode="e" 
d="M20 -1v1344h1573v-344h-1049v-172h1049v-311h-1049v-172h1049v-345h-1573z" />
    <glyph glyph-name="f" unicode="f" horiz-adv-x="1679" 
d="M20 -1v1344h1639v-426h-1115v-164h984v-393h-984v-361h-524z" />
    <glyph glyph-name="g" unicode="g" horiz-adv-x="1867" 
d="M934 509v230.003h913v-771h-262l-26 209c-73.333 -72.667 -164.166 -125.667 -272.499 -159s-224.5 -50 -348.5 -50c-106 0.666992 -202.833 7.33398 -290.5 20.001s-171.334 34.667 -251.001 66s-146.667 71.333 -201 120s-97.333 111.167 -129 187.5
s-47.167 163.833 -46.5 262.5v98c0 71.333 8 136.833 24 196.5s38.667 111.667 68 156s65.666 83.833 108.999 118.5s90.666 63.5 141.999 86.5s108.5 42 171.5 57s127.333 25.667 193 32s135.834 9.5 210.501 9.5c554.667 0 857.667 -180.333 909 -541h-557
c-32.667 44.667 -80.334 75 -143.001 91c-62 16 -131.667 24 -209 24c-47.333 -0.666992 -88.833 -3 -124.5 -7s-71.334 -11.833 -107.001 -23.5s-64.834 -26.834 -87.501 -45.501s-41 -43.667 -55 -75s-20.667 -68.333 -20 -111v-33
c-0.666992 -42.667 6 -79.834 20 -111.501s32.333 -56.834 55 -75.501s51.834 -33.667 87.501 -45s71.334 -19 107.001 -23s77.167 -6.33301 124.5 -7c116.667 0 206.334 7.16699 269.001 21.5s112.334 45.166 149.001 92.499h-422z" />
    <glyph glyph-name="h" unicode="h" horiz-adv-x="1876" 
d="M1331 460h-787v-459h-524v1344h524v-459h787v459h525v-1344h-525v459z" />
    <glyph glyph-name="i" unicode="i" horiz-adv-x="564" 
d="M20 1345h524v-1344h-524v1344z" />
    <glyph glyph-name="j" unicode="j" horiz-adv-x="1875" 
d="M1331 656l-0.00292969 688h524v-721c0 -436.667 -306 -655 -918 -655c-106 0 -202.833 6.33301 -290.5 19s-171.167 34.667 -250.5 66s-146.166 71.333 -200.499 120s-97.333 111.167 -129 187.5s-47.167 163.833 -46.5 262.5v164h524v-131
c-0.666992 -42.667 6 -79.834 20 -111.501s32.333 -56.834 55 -75.501s51.667 -33.667 87 -45s70.833 -19 106.5 -23s77.167 -6.33301 124.5 -7c47.333 0.666992 88.833 3 124.5 7s71.334 11.667 107.001 23s64.834 26.333 87.501 45s41 43.834 55 75.501
s20.667 68.834 20 111.501z" />
    <glyph glyph-name="k" unicode="k" horiz-adv-x="1974" 
d="M773 460h-229v-459h-524v1344h524v-459h229l493 459h688l-697 -672l697 -672h-688z" />
    <glyph glyph-name="l" unicode="l" 
d="M20 1345h524v-918h1049v-426h-1573v1344z" />
    <glyph glyph-name="m" unicode="m" horiz-adv-x="2400" 
d="M20 1v1344h656l524 -672l525 672h655v-1344h-524v717l-525 -717h-262l-525 717v-717h-524z" />
    <glyph glyph-name="n" unicode="n" horiz-adv-x="1876" 
d="M1331 633v712h525v-1344h-590l-722 821v-821h-524v1344h721z" />
    <glyph glyph-name="o" unicode="o" horiz-adv-x="1875" 
d="M938 1378c611.333 0 916.999 -218.667 916.999 -656v-98c0.666992 -98.667 -14.833 -186.167 -46.5 -262.5s-74.667 -139 -129 -188s-121.166 -89 -200.499 -120s-162.833 -53 -250.5 -66s-184.5 -19.5 -290.5 -19.5c-74.667 0 -144.834 3.16699 -210.501 9.5
s-130 17 -193 32s-120.167 34 -171.5 57s-98.666 51.833 -141.999 86.5s-79.666 74.334 -108.999 119.001s-52 96.667 -68 156s-24 124.666 -24 195.999v98c0 71.333 8 136.833 24 196.5s38.667 111.667 68 156s65.666 83.833 108.999 118.5s90.666 63.5 141.999 86.5
s108.5 42 171.5 57s127.333 25.667 193 32s135.834 9.5 210.501 9.5zM1331 657v33c0.666992 42.667 -6 79.667 -20 111s-32.333 56.333 -55 75s-51.667 33.834 -87 45.501s-71 19.5 -107 23.5s-77.333 6.33301 -124 7c-47.333 -0.666992 -88.833 -3 -124.5 -7
s-71.334 -11.833 -107.001 -23.5s-64.834 -26.834 -87.501 -45.501s-41 -43.667 -55 -75s-20.667 -68.333 -20 -111v-33c-0.666992 -42.667 6 -79.834 20 -111.501s32.333 -56.834 55 -75.501s51.834 -33.834 87.501 -45.501s71.334 -19.5 107.001 -23.5
s77.167 -6.33301 124.5 -7c46.667 0.666992 88 3 124 7s71.667 11.833 107 23.5s64.333 26.834 87 45.501s41 43.834 55 75.501s20.667 68.834 20 111.501z" />
    <glyph glyph-name="p" unicode="p" horiz-adv-x="1843" 
d="M544 721h640c31.333 0 58 11 80 33c22.667 22.667 34 49.667 34 81c0 32 -11.333 59 -34 81c-22 22.667 -48.667 34 -80 34h-640v-229zM20 1343l1295 0.00292969c90.667 0.666992 175.334 -21.833 254.001 -67.5s141 -107.834 187 -186.501s68.333 -163.334 67 -254.001
c1.33301 -90.667 -21 -175.334 -67 -254.001s-108.333 -141 -187 -187s-163.334 -68.333 -254.001 -67h-771v-328h-524v1344z" />
    <glyph glyph-name="q" unicode="q" horiz-adv-x="1876" 
d="M1856 721v-97.999c0 -240.667 -91.333 -414.334 -274 -521.001l274 -397h-558l-169 270c-66 -5.33301 -129.667 -8 -191 -8c-106 0.666992 -202.667 7.33398 -290 20.001s-170.833 34.5 -250.5 65.5s-146.667 70.833 -201 119.5s-97.5 111.167 -129.5 187.5
s-47.667 164.166 -47 263.499v98c-0.666992 98.667 15 186.167 47 262.5s75.167 138.833 129.5 187.5s121.333 88.667 201 120s163.167 53.333 250.5 66s184 19.334 290 20.001c106 -0.666992 202.667 -7.33398 290 -20.001s170.833 -34.667 250.5 -66
s146.667 -71.333 201 -120s97.5 -111.167 129.5 -187.5s47.667 -163.833 47 -262.5zM938 393.001c46.667 0.666992 88 3 124 7s71.667 11.833 107 23.5s64.333 26.834 87 45.501s41 43.667 55 75s20.667 68.333 20 111v33c0.666992 42.667 -6 79.834 -20 111.501
s-32.333 56.834 -55 75.501s-51.667 33.667 -87 45s-70.833 19 -106.5 23s-77.167 6.33301 -124.5 7c-47.333 -0.666992 -88.833 -3 -124.5 -7s-71.334 -11.667 -107.001 -23s-64.834 -26.333 -87.501 -45s-41 -43.834 -55 -75.501s-20.667 -68.834 -20 -111.501v-33
c-0.666992 -42.667 6 -79.667 20 -111s32.333 -56.333 55 -75s51.834 -33.834 87.501 -45.501s71.334 -19.5 107.001 -23.5s77.167 -6.33301 124.5 -7z" />
    <glyph glyph-name="r" unicode="r" horiz-adv-x="1843" 
d="M20 1344l1295 0.00195312c90.667 0.666992 175.334 -21.833 254.001 -67.5s141 -107.834 187 -186.501s68.333 -163.334 67 -254.001c0 -101.333 -27 -193 -81 -275c-53.333 -82 -124 -143.333 -212 -184l293 -377h-558l-253 328h-468v-328h-524v1344zM1183 951.002h-639
v-229h639c32 0 59 11 81 33c22.667 22.667 34 49.667 34 81c0 32 -11.167 59.167 -33.5 81.5s-49.5 33.5 -81.5 33.5z" />
    <glyph glyph-name="s" unicode="s" horiz-adv-x="1864" 
d="M569 902c0 -30.667 49.332 -51.332 147.999 -61.999c42 -4.66699 117.333 -9.66699 226 -15c218 -11.333 378.333 -26.666 481 -45.999c248 -47.333 386 -139.666 414 -276.999c4 -18.667 6 -38.334 6 -59.001c0 -74.667 -16.833 -140.167 -50.5 -196.5
s-78.167 -101.833 -133.5 -136.5s-123.333 -63 -204 -85s-163 -37 -247 -45s-176.333 -12 -277 -12c-73.333 0 -139 1.5 -197 4.5s-118.167 8.83301 -180.5 17.5s-117 20 -164 34s-93 33 -138 57s-82.667 52.5 -113 85.5s-56 72.667 -77 119s-35.167 98.833 -42.5 157.5h549
c28 -48.667 72.833 -82.667 134.5 -102s137.834 -29 228.501 -29c44.667 0 86.834 2 126.501 6s78 10.667 115 20s66.5 23 88.5 41s33 39.333 33 64c0 9.33301 -4 17.833 -12 25.5s-21.167 14 -39.5 19s-36.666 9.16699 -54.999 12.5s-44.333 6.5 -78 9.5
s-62.667 5.16699 -87 6.5s-58.5 3 -102.5 5c-218 11.333 -378.333 26.666 -481 45.999c-248 47.333 -386 139.666 -414 276.999c-4 18.667 -6 38 -6 58c0 317.333 304 476 912 476c74 -0.666992 139.667 -2.5 197 -5.5s117.5 -8.66699 180.5 -17s117.833 -19.5 164.5 -33.5
s92.5 -33 137.5 -57s82.667 -52.333 113 -85s56.166 -72.5 77.499 -119.5s35.333 -99.833 42 -158.5h-549c-28 49.333 -72.5 83.5 -133.5 102.5s-137.5 28.5 -229.5 28.5c-45.333 0 -87.5 -1.83301 -126.5 -5.5s-77.333 -10.167 -115 -19.5s-67.334 -23 -89.001 -41
s-32.5 -39.667 -32.5 -65z" />
    <glyph glyph-name="t" unicode="t" horiz-adv-x="1810" 
d="M1167 -1h-524v918h-623v426h1770v-426h-623v-918z" />
    <glyph glyph-name="u" unicode="u" horiz-adv-x="1876" 
d="M1331 656v689h525v-722c0.666992 -98.667 -15 -186.167 -47 -262.5s-75.167 -138.833 -129.5 -187.5s-121.333 -88.667 -201 -120s-163.334 -53.333 -251.001 -66s-184.167 -19 -289.5 -19s-201.833 6.33301 -289.5 19s-171.334 34.667 -251.001 66
s-146.667 71.333 -201 120s-97.5 111.167 -129.5 187.5s-47.667 163.833 -47 262.5v722h524v-689c-0.666992 -42.667 6 -79.834 20 -111.501s32.333 -56.834 55 -75.501s51.834 -33.667 87.501 -45s71.334 -19 107.001 -23s77.167 -6.33301 124.5 -7
c47.333 0.666992 88.833 3 124.5 7s71.167 11.667 106.5 23s64.333 26.333 87 45s41 43.834 55 75.501s20.667 68.834 20 111.501z" />
    <glyph glyph-name="v" unicode="v" horiz-adv-x="2040" 
d="M610 1343l410 -933l410 933h590l-689 -1344h-623l-688 1344h590z" />
    <glyph glyph-name="w" unicode="w" horiz-adv-x="3056" 
d="M2134 492l312 851h590l-590 -1344h-623l-295 672l-295 -672h-623l-590 1344h590l311 -851l312 851h590z" />
    <glyph glyph-name="x" unicode="x" horiz-adv-x="2105" 
d="M1053 951l377 392h655l-705 -672l705 -672h-655l-377 393l-377 -393h-656l705 672l-705 672h656z" />
    <glyph glyph-name="y" unicode="y" horiz-adv-x="2072" 
d="M643 1343l393 -482l394 482h622l-754 -885v-459h-524v459l-754 885h623z" />
    <glyph glyph-name="z" unicode="z" horiz-adv-x="1777" 
d="M905 917h-885v426h1737v-426l-917 -491h917v-427h-1737v427z" />
    <glyph glyph-name="braceleft" unicode="{" horiz-adv-x="1155" 
d="M348 257l0.00195312 65c0 54.667 -19.333 101 -58 139c-38 38.667 -84.333 58 -139 58h-131v148v147h131c54.667 0 101 19 139 57c38.667 38.667 58 85.334 58 140.001v65c-0.666992 82 19.666 158.667 60.999 230s97.5 127.666 168.5 168.999s147.5 61.333 229.5 60h328
v-393h-230c-45.333 0 -84 -16 -116 -48s-48 -70.667 -48 -116c0 -86 -30.333 -159.333 -91 -220s-134 -91 -220 -91c85.333 0 158.666 -30.667 219.999 -92c60.667 -60.667 91 -134 91 -220c0 -45.333 16 -84 48 -116s70.667 -48 116 -48h230v-393h-328
c-125.333 -1.33301 -233.5 43.5 -324.5 134.5s-135.833 199.167 -134.5 324.5z" />
    <glyph glyph-name="bar" unicode="|" horiz-adv-x="564" 
d="M20 1570h524v-1770h-524v1770z" />
    <glyph glyph-name="braceright" unicode="}" horiz-adv-x="1155" 
d="M807 322l0.00292969 -65.001c1.33301 -125.333 -43.5 -233.5 -134.5 -324.5s-199.167 -135.833 -324.5 -134.5h-328v393h229c45.333 0 84 16 116 48s48 70.667 48 116c0 86 30.333 159.333 91 220c61.333 61.333 135 92 221 92c-86.667 0 -160.334 30.333 -221.001 91
s-91 134 -91 220c0 45.333 -16 84 -48 116s-70.667 48 -116 48h-229v393h328c82 1.33301 158.5 -18.667 229.5 -60s127.167 -97.666 168.5 -168.999s61.666 -148 60.999 -230v-65c0 -54 19 -100.667 57 -140c39.333 -38 85.666 -57 138.999 -57h132v-147v-148h-132
c-54 0 -100.333 -19.333 -139 -58c-38 -38 -57 -84.333 -57 -139z" />
    <glyph glyph-name="brokenbar" unicode="&#xa6;" horiz-adv-x="564" 
d="M544 882h-524v688h524v-688zM20 488h524v-688h-524v688z" />
    <glyph glyph-name="copyright" unicode="&#xa9;" horiz-adv-x="1961" 
d="M1216 594l12.002 -0.00390625h328c-14 -118 -78.667 -205.667 -194 -263c-42 -21.333 -86.667 -38 -134 -50c-86 -20 -168.333 -30 -247 -30c-78 0 -160.333 10 -247 30c-46.667 12 -89 27.5 -127 46.5s-72.5 42.5 -103.5 70.5s-55.167 61.833 -72.5 101.5
s-26 83.834 -26 132.501v57c0 136.667 65.333 237 196 301c41.333 21.333 85.666 38 132.999 50c86.667 20 169 30 247 30c78.667 0 161 -10 247 -30c85.333 -21.333 158.333 -56.666 219 -105.999c62 -50.667 98.333 -119.667 109 -207h-328h-12
c-14.667 30.667 -38.667 53 -72 67c-46.667 19.333 -101 29 -163 29c-28.667 0 -56 -2.16699 -82 -6.5s-52.167 -11.666 -78.5 -21.999s-47.333 -26.166 -63 -47.499s-23.5 -47 -23.5 -77v-19c0 -56 28.333 -97.333 85 -124c45.333 -18.667 99.333 -28 162 -28
c125.333 0 203.666 31.667 234.999 95zM1338 166.996h1.00098c67.333 19.333 127.333 43.333 180 72c150 80 225 203.333 225 370v103c-2 69.333 -12.667 126.666 -32 171.999c-54.667 126.667 -179 216.667 -373 270c-114 31.333 -233.333 47 -358 47
s-244 -15.667 -358 -47h-1h-1c-65.333 -18.667 -125 -42.667 -179 -72c-150 -80 -225 -203.333 -225 -370v-103c0.666992 -16.667 1 -27.667 1 -33s1.33301 -19 4 -41s6.16699 -39.167 10.5 -51.5s11.166 -30.166 20.499 -53.499s20.333 -43 33 -59s29.5 -34.833 50.5 -56.5
s44.5 -40.5 70.5 -56.5s57.333 -32.167 94 -48.5s77 -30.5 121 -42.5c114 -31.333 233.667 -47 359 -47c124.667 0 243.667 15.667 357 47zM1615 66.9961c-69.333 -38 -143.666 -67.6689 -222.999 -89.002c-128.667 -36.667 -265.667 -55 -411 -55
c-146 0 -283.333 18.333 -412 55c-60.667 16.667 -117.334 37.167 -170.001 61.5s-102.667 54.833 -150 91.5s-87.666 77.667 -120.999 123s-59.666 98.333 -78.999 159s-29 126 -29 196v103c0 126 29 234 87 324s137.667 162.667 239 218c68 37.333 142.333 67.333 223 90
c133.333 36 270.666 54 411.999 54c140.667 0 277.667 -18 411 -54c77.333 -21.333 147.666 -49.166 210.999 -83.499s121 -76.666 173 -126.999s92.5 -111.333 121.5 -183s43.5 -151.167 43.5 -238.5v-103c0 -126 -29 -234 -87 -324s-137.667 -162.667 -239 -218z" />
    <glyph glyph-name="registered" unicode="&#xae;" horiz-adv-x="1961" 
d="M780 686h337c18 0 33.167 5.66699 45.5 17s18.5 25.333 18.5 42c0 16 -6.16699 29.667 -18.5 41s-27.5 17 -45.5 17h-337v-117zM1472 745c0 -52 -14.667 -98.833 -44 -140.5s-68.666 -73.5 -117.999 -95.5l162 -193h-309l-132 168h-251v-168h-291v168v202v117v202h291
h410c77.333 0 143.666 -25.667 198.999 -77s83 -112.333 83 -183zM1744 609l0.000976562 103c-2 69.333 -12.667 126.666 -32 171.999c-54.667 126.667 -179 216.667 -373 270c-114 31.333 -233.333 47 -358 47s-244 -15.667 -358 -47h-1h-1
c-65.333 -18.667 -125 -42.667 -179 -72c-150 -80 -225 -203.333 -225 -370v-103c0.666992 -16.667 1 -27.667 1 -33s1.33301 -19 4 -41s6.16699 -39.167 10.5 -51.5s11.166 -30.166 20.499 -53.499s20.333 -43 33 -59s29.5 -34.833 50.5 -56.5s44.5 -40.5 70.5 -56.5
s57.333 -32.167 94 -48.5s77 -30.5 121 -42.5c114 -31.333 233.667 -47 359 -47c124.667 0 243.667 15.667 357 47h1h1c65.333 18.667 125 42.667 179 72c150 80 225 203.333 225 370zM1941 712v-103.002c0 -126 -29 -234 -87 -324s-137.667 -162.667 -239 -218
c-69.333 -38 -143.666 -67.667 -222.999 -89c-128.667 -36.667 -265.667 -55 -411 -55c-146 0 -283.333 18.333 -412 55c-60.667 16.667 -117.334 37.167 -170.001 61.5s-102.667 54.833 -150 91.5s-87.666 77.667 -120.999 123s-59.666 98.333 -78.999 159s-29 126 -29 196
v103c0 126 29 234 87 324s137.667 162.667 239 218c68 37.333 142.333 67.333 223 90c133.333 36 270.666 54 411.999 54c140.667 0 277.667 -18 411 -54c77.333 -21.333 147.666 -49.166 210.999 -83.499s121 -76.666 173 -126.999s92.5 -111.333 121.5 -183
s43.5 -151.167 43.5 -238.5z" />
    <glyph glyph-name="plusminus" unicode="&#xb1;" 
d="M20 361h1573v-361h-1573v361zM1036 492h-459v262h-557v361h557v262h459v-262h557v-361h-557v-262z" />
    <glyph glyph-name="multiply" unicode="&#xd7;" horiz-adv-x="1629" 
d="M20 391l433 281l-433 282l214 330l580 -377l581 377l214 -330l-433 -282l433 -281l-214 -330l-581 377l-580 -377z" />
    <glyph glyph-name="divide" unicode="&#xf7;" 
d="M1593 479h-1573v393h1573v-393zM1036 348v-328h-459v328h459zM577 1003v328h459v-328h-459z" />
    <glyph glyph-name="trademark" unicode="&#x2122;" horiz-adv-x="2400" 
d="M352 1117h-332v228h944v-228h-332v-489h-280v489zM2380 628h-280v382l-279 -382h-140l-280 382v-382h-280v717h350l280 -359l280 359h349v-717z" />
    <glyph glyph-name="minus" unicode="&#x2212;" 
d="M20 869h1573v-393h-1573v393z" />
    <glyph glyph-name="lessequal" unicode="&#x2264;" 
d="M20 1065l1573 312v-312l-743 -147l743 -131v-312l-1573 279v311zM20 361h1573v-361h-1573v361z" />
    <glyph glyph-name="greaterequal" unicode="&#x2265;" 
d="M20 1065v312l1573 -312v-311l-1573 -279v312l743 131zM20 0v361h1573v-361h-1573z" />
    <glyph glyph-name=".null" horiz-adv-x="0" 
 />
    <glyph glyph-name="nonmarkingreturn" horiz-adv-x="682" 
 />
    <glyph glyph-name="A.alt" horiz-adv-x="2105" 
d="M741 1344h623l721 -1344h-590l-442 955l-443 -955h-590z" />
    <glyph glyph-name="K.alt" horiz-adv-x="1941" 
d="M544 1344v-1344h-524v1344h524zM1233 1344h688l-754 -672l754 -672h-688l-689 672z" />
    </font>
</defs>
</svg>
